<mxfile host="www.draw.io" modified="2020-02-15T12:36:21.505Z" agent="Mozilla/5.0 (Windows NT 10.0; Win64; x64) AppleWebKit/537.36 (KHTML, like Gecko) Chrome/80.0.3987.106 Safari/537.36" etag="Be5rMGlijBaaRY-jrmPx" version="12.7.0" type="github">
  <diagram name="Page-1" id="74b105a0-9070-1c63-61bc-23e55f88626e">
    <mxGraphModel dx="1443" dy="2799" grid="1" gridSize="10" guides="1" tooltips="1" connect="1" arrows="1" fold="1" page="1" pageScale="1.5" pageWidth="1169" pageHeight="826" background="none" math="0" shadow="0">
      <root>
        <mxCell id="0" style=";html=1;"/>
        <mxCell id="1" style=";html=1;" parent="0"/>
        <mxCell id="N1SPaJN3-FvJbKvBgrWH-49" style="edgeStyle=orthogonalEdgeStyle;rounded=0;orthogonalLoop=1;jettySize=auto;html=1;exitX=0.5;exitY=0.5;exitDx=0;exitDy=0;exitPerimeter=0;entryX=0.5;entryY=0;entryDx=0;entryDy=0;" edge="1" parent="1" source="N1SPaJN3-FvJbKvBgrWH-1" target="N1SPaJN3-FvJbKvBgrWH-13">
          <mxGeometry relative="1" as="geometry"/>
        </mxCell>
        <mxCell id="N1SPaJN3-FvJbKvBgrWH-50" style="edgeStyle=orthogonalEdgeStyle;rounded=0;orthogonalLoop=1;jettySize=auto;html=1;exitX=0.5;exitY=0.5;exitDx=0;exitDy=0;exitPerimeter=0;entryX=0.5;entryY=0;entryDx=0;entryDy=0;" edge="1" parent="1" source="N1SPaJN3-FvJbKvBgrWH-1" target="N1SPaJN3-FvJbKvBgrWH-4">
          <mxGeometry relative="1" as="geometry"/>
        </mxCell>
        <mxCell id="N1SPaJN3-FvJbKvBgrWH-1" value="Actor" style="shape=umlActor;verticalLabelPosition=bottom;labelBackgroundColor=#ffffff;verticalAlign=top;html=1;outlineConnect=0;" vertex="1" parent="1">
          <mxGeometry x="710" y="10" width="30" height="60" as="geometry"/>
        </mxCell>
        <mxCell id="N1SPaJN3-FvJbKvBgrWH-7" value="" style="edgeStyle=orthogonalEdgeStyle;rounded=0;orthogonalLoop=1;jettySize=auto;html=1;" edge="1" parent="1" source="N1SPaJN3-FvJbKvBgrWH-4" target="N1SPaJN3-FvJbKvBgrWH-6">
          <mxGeometry relative="1" as="geometry"/>
        </mxCell>
        <mxCell id="N1SPaJN3-FvJbKvBgrWH-4" value="Xamarin Mobile APP&lt;br&gt;&lt;font style=&quot;font-size: 10px&quot;&gt;/CophiPoint&lt;/font&gt;" style="rounded=0;whiteSpace=wrap;html=1;verticalAlign=top;" vertex="1" parent="1">
          <mxGeometry x="310" y="128.75" width="480" height="263.75" as="geometry"/>
        </mxCell>
        <mxCell id="N1SPaJN3-FvJbKvBgrWH-6" value="PHP Backend&lt;br&gt;&lt;font style=&quot;font-size: 10px&quot;&gt;/TestPhpServer&lt;/font&gt;" style="rounded=0;whiteSpace=wrap;html=1;verticalAlign=top;" vertex="1" parent="1">
          <mxGeometry x="830" y="70" width="470" height="322.5" as="geometry"/>
        </mxCell>
        <mxCell id="N1SPaJN3-FvJbKvBgrWH-3" value="Android App&lt;br&gt;&lt;font style=&quot;font-size: 10px&quot;&gt;/CophiPoint.Android&lt;/font&gt;" style="rounded=0;whiteSpace=wrap;html=1;fillColor=#d5e8d4;strokeColor=#82b366;" vertex="1" parent="1">
          <mxGeometry x="428" y="322.5" width="120" height="60" as="geometry"/>
        </mxCell>
        <mxCell id="N1SPaJN3-FvJbKvBgrWH-5" value="iOS App&lt;br&gt;&lt;font style=&quot;font-size: 10px&quot;&gt;/CophiPoint.iOS&lt;/font&gt;" style="rounded=0;whiteSpace=wrap;html=1;fillColor=#d5e8d4;strokeColor=#82b366;" vertex="1" parent="1">
          <mxGeometry x="558" y="322.5" width="120" height="60" as="geometry"/>
        </mxCell>
        <mxCell id="N1SPaJN3-FvJbKvBgrWH-12" value="" style="edgeStyle=orthogonalEdgeStyle;rounded=0;orthogonalLoop=1;jettySize=auto;html=1;exitX=1;exitY=0.25;exitDx=0;exitDy=0;" edge="1" parent="1" source="N1SPaJN3-FvJbKvBgrWH-9" target="N1SPaJN3-FvJbKvBgrWH-11">
          <mxGeometry relative="1" as="geometry"/>
        </mxCell>
        <mxCell id="N1SPaJN3-FvJbKvBgrWH-26" style="edgeStyle=orthogonalEdgeStyle;rounded=0;orthogonalLoop=1;jettySize=auto;html=1;exitX=1;exitY=0.5;exitDx=0;exitDy=0;" edge="1" parent="1" source="N1SPaJN3-FvJbKvBgrWH-9" target="N1SPaJN3-FvJbKvBgrWH-18">
          <mxGeometry relative="1" as="geometry"/>
        </mxCell>
        <mxCell id="N1SPaJN3-FvJbKvBgrWH-27" style="edgeStyle=orthogonalEdgeStyle;rounded=0;orthogonalLoop=1;jettySize=auto;html=1;exitX=1;exitY=0.75;exitDx=0;exitDy=0;entryX=0;entryY=0.25;entryDx=0;entryDy=0;" edge="1" parent="1" source="N1SPaJN3-FvJbKvBgrWH-9" target="N1SPaJN3-FvJbKvBgrWH-20">
          <mxGeometry relative="1" as="geometry">
            <Array as="points">
              <mxPoint x="1130" y="192.5"/>
              <mxPoint x="1130" y="267.5"/>
            </Array>
          </mxGeometry>
        </mxCell>
        <mxCell id="N1SPaJN3-FvJbKvBgrWH-9" value="OIDCController" style="rounded=0;whiteSpace=wrap;html=1;fillColor=#dae8fc;strokeColor=#6c8ebf;" vertex="1" parent="1">
          <mxGeometry x="1000" y="147.5" width="120" height="60" as="geometry"/>
        </mxCell>
        <mxCell id="N1SPaJN3-FvJbKvBgrWH-14" style="edgeStyle=orthogonalEdgeStyle;rounded=0;orthogonalLoop=1;jettySize=auto;html=1;exitX=1;exitY=0.5;exitDx=0;exitDy=0;entryX=0;entryY=0.5;entryDx=0;entryDy=0;" edge="1" parent="1" source="N1SPaJN3-FvJbKvBgrWH-11" target="N1SPaJN3-FvJbKvBgrWH-13">
          <mxGeometry relative="1" as="geometry"/>
        </mxCell>
        <mxCell id="N1SPaJN3-FvJbKvBgrWH-11" value="OIDCClient" style="rounded=0;whiteSpace=wrap;html=1;fillColor=#dae8fc;strokeColor=#6c8ebf;" vertex="1" parent="1">
          <mxGeometry x="1170" y="113.5" width="120" height="60" as="geometry"/>
        </mxCell>
        <mxCell id="N1SPaJN3-FvJbKvBgrWH-22" style="edgeStyle=orthogonalEdgeStyle;rounded=0;orthogonalLoop=1;jettySize=auto;html=1;exitX=1;exitY=0.25;exitDx=0;exitDy=0;entryX=0;entryY=0.5;entryDx=0;entryDy=0;" edge="1" parent="1" source="N1SPaJN3-FvJbKvBgrWH-10" target="N1SPaJN3-FvJbKvBgrWH-20">
          <mxGeometry relative="1" as="geometry"/>
        </mxCell>
        <mxCell id="N1SPaJN3-FvJbKvBgrWH-23" style="edgeStyle=orthogonalEdgeStyle;rounded=0;orthogonalLoop=1;jettySize=auto;html=1;exitX=1;exitY=0.75;exitDx=0;exitDy=0;entryX=0;entryY=0.5;entryDx=0;entryDy=0;" edge="1" parent="1" source="N1SPaJN3-FvJbKvBgrWH-10" target="N1SPaJN3-FvJbKvBgrWH-19">
          <mxGeometry relative="1" as="geometry"/>
        </mxCell>
        <mxCell id="N1SPaJN3-FvJbKvBgrWH-25" style="edgeStyle=orthogonalEdgeStyle;rounded=0;orthogonalLoop=1;jettySize=auto;html=1;exitX=0.5;exitY=0;exitDx=0;exitDy=0;entryX=0.5;entryY=1;entryDx=0;entryDy=0;" edge="1" parent="1" source="N1SPaJN3-FvJbKvBgrWH-10" target="N1SPaJN3-FvJbKvBgrWH-9">
          <mxGeometry relative="1" as="geometry"/>
        </mxCell>
        <mxCell id="N1SPaJN3-FvJbKvBgrWH-10" value="OrdersController" style="rounded=0;whiteSpace=wrap;html=1;fillColor=#dae8fc;strokeColor=#6c8ebf;" vertex="1" parent="1">
          <mxGeometry x="1000" y="287.5" width="120" height="60" as="geometry"/>
        </mxCell>
        <mxCell id="N1SPaJN3-FvJbKvBgrWH-13" value="MojeID &lt;br&gt;(OIDC Provider)" style="rounded=0;whiteSpace=wrap;html=1;fillColor=#f8cecc;strokeColor=#b85450;" vertex="1" parent="1">
          <mxGeometry x="1321" y="113.5" width="120" height="60" as="geometry"/>
        </mxCell>
        <mxCell id="N1SPaJN3-FvJbKvBgrWH-29" style="edgeStyle=orthogonalEdgeStyle;rounded=0;orthogonalLoop=1;jettySize=auto;html=1;exitX=1;exitY=0.5;exitDx=0;exitDy=0;entryX=0;entryY=0.3;entryDx=0;entryDy=0;" edge="1" parent="1" source="N1SPaJN3-FvJbKvBgrWH-18" target="N1SPaJN3-FvJbKvBgrWH-28">
          <mxGeometry relative="1" as="geometry"/>
        </mxCell>
        <mxCell id="N1SPaJN3-FvJbKvBgrWH-18" value="TokenDatabase" style="rounded=0;whiteSpace=wrap;html=1;fillColor=#dae8fc;strokeColor=#6c8ebf;" vertex="1" parent="1">
          <mxGeometry x="1170" y="182.5" width="120" height="60" as="geometry"/>
        </mxCell>
        <mxCell id="N1SPaJN3-FvJbKvBgrWH-31" style="edgeStyle=orthogonalEdgeStyle;rounded=0;orthogonalLoop=1;jettySize=auto;html=1;exitX=1;exitY=0.5;exitDx=0;exitDy=0;entryX=0;entryY=0.7;entryDx=0;entryDy=0;" edge="1" parent="1" source="N1SPaJN3-FvJbKvBgrWH-19" target="N1SPaJN3-FvJbKvBgrWH-28">
          <mxGeometry relative="1" as="geometry"/>
        </mxCell>
        <mxCell id="N1SPaJN3-FvJbKvBgrWH-19" value="OrderDatabase" style="rounded=0;whiteSpace=wrap;html=1;fillColor=#dae8fc;strokeColor=#6c8ebf;" vertex="1" parent="1">
          <mxGeometry x="1170" y="322.5" width="120" height="60" as="geometry"/>
        </mxCell>
        <mxCell id="N1SPaJN3-FvJbKvBgrWH-30" style="edgeStyle=orthogonalEdgeStyle;rounded=0;orthogonalLoop=1;jettySize=auto;html=1;exitX=1;exitY=0.5;exitDx=0;exitDy=0;entryX=0;entryY=0.5;entryDx=0;entryDy=0;" edge="1" parent="1" source="N1SPaJN3-FvJbKvBgrWH-20" target="N1SPaJN3-FvJbKvBgrWH-28">
          <mxGeometry relative="1" as="geometry"/>
        </mxCell>
        <mxCell id="N1SPaJN3-FvJbKvBgrWH-20" value="UserDatabase" style="rounded=0;whiteSpace=wrap;html=1;fillColor=#dae8fc;strokeColor=#6c8ebf;" vertex="1" parent="1">
          <mxGeometry x="1170" y="252.5" width="120" height="60" as="geometry"/>
        </mxCell>
        <mxCell id="N1SPaJN3-FvJbKvBgrWH-28" value="Main DB" style="shape=cylinder;whiteSpace=wrap;html=1;boundedLbl=1;backgroundOutline=1;" vertex="1" parent="1">
          <mxGeometry x="1360" y="242.5" width="60" height="80" as="geometry"/>
        </mxCell>
        <mxCell id="N1SPaJN3-FvJbKvBgrWH-32" value="&lt;h1&gt;Legend&lt;/h1&gt;&lt;p&gt;&lt;/p&gt;&lt;ul&gt;&lt;li&gt;System part (white)&lt;/li&gt;&lt;li&gt;Third party system (&lt;font color=&quot;#ea6b66&quot;&gt;red&lt;/font&gt;)&lt;/li&gt;&lt;li&gt;Library (&lt;font color=&quot;#97d077&quot;&gt;green&lt;/font&gt;)&lt;/li&gt;&lt;li&gt;Class/-es (&lt;font color=&quot;#7ea6e0&quot;&gt;blue&lt;/font&gt;)&lt;br&gt;&lt;/li&gt;&lt;/ul&gt;&lt;p&gt;&lt;/p&gt;" style="text;html=1;strokeColor=none;fillColor=none;spacing=5;spacingTop=-20;whiteSpace=wrap;overflow=hidden;rounded=0;" vertex="1" parent="1">
          <mxGeometry x="310" y="-0.46999999999999886" width="190" height="120" as="geometry"/>
        </mxCell>
        <mxCell id="N1SPaJN3-FvJbKvBgrWH-46" style="edgeStyle=orthogonalEdgeStyle;rounded=0;orthogonalLoop=1;jettySize=auto;html=1;exitX=0.5;exitY=1;exitDx=0;exitDy=0;dashed=1;" edge="1" parent="1" source="N1SPaJN3-FvJbKvBgrWH-33" target="N1SPaJN3-FvJbKvBgrWH-3">
          <mxGeometry relative="1" as="geometry"/>
        </mxCell>
        <mxCell id="N1SPaJN3-FvJbKvBgrWH-47" style="edgeStyle=orthogonalEdgeStyle;rounded=0;orthogonalLoop=1;jettySize=auto;html=1;exitX=0.5;exitY=1;exitDx=0;exitDy=0;entryX=0.5;entryY=0;entryDx=0;entryDy=0;dashed=1;" edge="1" parent="1" source="N1SPaJN3-FvJbKvBgrWH-33" target="N1SPaJN3-FvJbKvBgrWH-5">
          <mxGeometry relative="1" as="geometry"/>
        </mxCell>
        <mxCell id="N1SPaJN3-FvJbKvBgrWH-33" value="Xamarin Base&lt;br&gt;&lt;font style=&quot;font-size: 10px&quot;&gt;/CophiPoint&lt;/font&gt;" style="rounded=0;whiteSpace=wrap;html=1;fillColor=#d5e8d4;strokeColor=#82b366;verticalAlign=top;" vertex="1" parent="1">
          <mxGeometry x="320" y="169.75" width="460" height="122.75" as="geometry"/>
        </mxCell>
        <mxCell id="N1SPaJN3-FvJbKvBgrWH-39" style="edgeStyle=orthogonalEdgeStyle;rounded=0;orthogonalLoop=1;jettySize=auto;html=1;exitX=1;exitY=0.75;exitDx=0;exitDy=0;entryX=0;entryY=0.5;entryDx=0;entryDy=0;" edge="1" parent="1" source="N1SPaJN3-FvJbKvBgrWH-34" target="N1SPaJN3-FvJbKvBgrWH-10">
          <mxGeometry relative="1" as="geometry"/>
        </mxCell>
        <mxCell id="N1SPaJN3-FvJbKvBgrWH-40" style="edgeStyle=orthogonalEdgeStyle;rounded=0;orthogonalLoop=1;jettySize=auto;html=1;exitX=1;exitY=0.25;exitDx=0;exitDy=0;entryX=0;entryY=0.5;entryDx=0;entryDy=0;" edge="1" parent="1" source="N1SPaJN3-FvJbKvBgrWH-34" target="N1SPaJN3-FvJbKvBgrWH-9">
          <mxGeometry relative="1" as="geometry"/>
        </mxCell>
        <mxCell id="N1SPaJN3-FvJbKvBgrWH-34" value="&lt;p style=&quot;line-height: 0%&quot;&gt;Public Endpoints&lt;br&gt;&lt;/p&gt;&lt;ul&gt;&lt;li style=&quot;text-align: left&quot;&gt;&lt;span style=&quot;font-size: 10px&quot;&gt;./api.json&lt;/span&gt;&lt;br&gt;&lt;/li&gt;&lt;li style=&quot;text-align: left&quot;&gt;&lt;span style=&quot;font-size: 10px&quot;&gt;./api/*&lt;br&gt;&lt;/span&gt;&lt;/li&gt;&lt;/ul&gt;&lt;p&gt;&lt;/p&gt;" style="rounded=0;whiteSpace=wrap;html=1;verticalAlign=top;fillColor=#fff2cc;strokeColor=#d6b656;" vertex="1" parent="1">
          <mxGeometry x="840" y="200" width="120" height="62.5" as="geometry"/>
        </mxCell>
        <mxCell id="N1SPaJN3-FvJbKvBgrWH-41" value="API Managmen&lt;br&gt;./Api/*" style="rounded=0;whiteSpace=wrap;html=1;fillColor=#dae8fc;strokeColor=#6c8ebf;" vertex="1" parent="1">
          <mxGeometry x="650" y="213.75" width="120" height="60" as="geometry"/>
        </mxCell>
        <mxCell id="N1SPaJN3-FvJbKvBgrWH-45" style="edgeStyle=orthogonalEdgeStyle;rounded=0;orthogonalLoop=1;jettySize=auto;html=1;exitX=1;exitY=0.5;exitDx=0;exitDy=0;" edge="1" parent="1" source="N1SPaJN3-FvJbKvBgrWH-42" target="N1SPaJN3-FvJbKvBgrWH-43">
          <mxGeometry relative="1" as="geometry"/>
        </mxCell>
        <mxCell id="N1SPaJN3-FvJbKvBgrWH-42" value="&lt;div&gt;&lt;span&gt;UI&lt;/span&gt;&lt;/div&gt;&lt;div&gt;- ./Pages/*&lt;span&gt;&lt;br&gt;&lt;/span&gt;&lt;/div&gt;&lt;div&gt;&lt;span&gt;- ./Views/*&lt;/span&gt;&lt;/div&gt;&lt;div&gt;&lt;span&gt;- ./ViewModels/*&lt;/span&gt;&lt;/div&gt;&lt;div&gt;&lt;span&gt;-./Converters/*&lt;/span&gt;&lt;/div&gt;" style="rounded=0;whiteSpace=wrap;html=1;align=left;fillColor=#dae8fc;strokeColor=#6c8ebf;" vertex="1" parent="1">
          <mxGeometry x="330" y="205" width="120" height="77.5" as="geometry"/>
        </mxCell>
        <mxCell id="N1SPaJN3-FvJbKvBgrWH-44" style="edgeStyle=orthogonalEdgeStyle;rounded=0;orthogonalLoop=1;jettySize=auto;html=1;exitX=1;exitY=0.5;exitDx=0;exitDy=0;" edge="1" parent="1" source="N1SPaJN3-FvJbKvBgrWH-43" target="N1SPaJN3-FvJbKvBgrWH-41">
          <mxGeometry relative="1" as="geometry"/>
        </mxCell>
        <mxCell id="N1SPaJN3-FvJbKvBgrWH-43" value="Data Managment&lt;br&gt;./Services/*" style="rounded=0;whiteSpace=wrap;html=1;fillColor=#dae8fc;strokeColor=#6c8ebf;" vertex="1" parent="1">
          <mxGeometry x="493" y="213.75" width="120" height="60" as="geometry"/>
        </mxCell>
      </root>
    </mxGraphModel>
  </diagram>
</mxfile>
